<?xml version="1.0" encoding="utf-8"?>
<!-- Generator: Adobe Illustrator 26.2.1, SVG Export Plug-In . SVG Version: 6.00 Build 0)  -->
<svg version="1.1" id="Layer_1" xmlns="http://www.w3.org/2000/svg" xmlns:xlink="http://www.w3.org/1999/xlink" x="0px" y="0px"
	 viewBox="0 0 371.05 152.51" style="enable-background:new 0 0 371.05 152.51;" xml:space="preserve">
<style type="text/css">
	.st0{fill:#FFFFFF;}
</style>
<g>
	<g>
		<g>
			<path class="st0" d="M129.78,136.56h4.51c3.54,0,5.6,2.31,5.6,5.3c0,3.51-2.47,5.66-5.63,5.66h-4.48V136.56z M131.33,146.24h2.61
				c2.9,0,4.3-1.82,4.3-4.33c0-2.54-1.64-4.06-4.18-4.07h-2.73V146.24z"/>
			<path class="st0" d="M159.71,142.42h-6.57v3.79h7.25l-0.21,1.31h-8.59v-10.96h8.47v1.31h-6.92v3.24h6.57V142.42z"/>
			<path class="st0" d="M172.55,144.33c0.4,1.28,1.34,2.18,3.5,2.18c2.15,0,2.98-0.84,2.98-1.86c0-1.08-0.6-1.74-3.43-2.22
				c-3.3-0.56-4.09-1.59-4.09-3.09c0-1.93,1.83-3.03,4.22-3.03c3.56,0,4.4,1.87,4.53,2.97h-1.57c-0.22-0.75-0.69-1.73-3-1.73
				c-1.58,0-2.59,0.54-2.59,1.64c0,0.9,0.45,1.46,2.94,1.88c3.96,0.67,4.59,1.9,4.59,3.42c0,1.75-1.39,3.24-4.69,3.24
				c-3.06,0-4.61-1.4-4.97-3.41H172.55z"/>
			<path class="st0" d="M193.86,136.56v10.96h-1.55v-10.96H193.86z"/>
			<path class="st0" d="M216.53,147.52h-1.19c-0.05-0.27-0.12-1.14-0.12-1.62c-0.73,1.18-1.85,1.85-3.99,1.85
				c-3.46,0-5.58-2.27-5.58-5.68c0-3.23,2.19-5.75,5.84-5.75c3.28,0,4.68,1.67,5.09,3.29h-1.6c-0.42-1.02-1.37-2.01-3.51-2.01
				c-2.74,0-4.19,1.93-4.19,4.38c0,2.58,1.47,4.49,4.16,4.49c2.29,0,3.58-1.16,3.58-3.32v-0.33h-3.55v-1.3h5.05V147.52z"/>
			<path class="st0" d="M228.58,147.52v-10.96h1.85c2.47,3.43,5.99,7.94,6.61,9.06h0.03c-0.1-1.43-0.08-3.16-0.08-4.94v-4.13h1.45
				v10.96h-1.75c-1.63-2.19-5.93-8.1-6.71-9.37h-0.03c0.08,1.41,0.08,2.96,0.08,4.9v4.47H228.58z"/>
		</g>
		<g>
			<g>
				<rect x="220.62" y="83.83" class="st0" width="2.73" height="28.47"/>
			</g>
			<g>
				<polygon class="st0" points="240.37,83.83 241.42,83.83 228.61,96.92 243.17,112.3 239.47,112.3 226.17,98.35 				"/>
			</g>
			<g>
				<path class="st0" d="M254.6,83.83v28.47h-2.73V83.83H254.6z"/>
			</g>
			<g>
				<path class="st0" d="M333.79,83.83v0.77H319.3v12.73h12.04v0.77H319.3v13.46h14.48v0.73h-17.21V83.83H333.79z"/>
			</g>
			<g>
				<path class="st0" d="M360.47,83.83v0.77h-14.48v12.73h12.04v0.77h-12.04v13.46h14.48v0.73h-17.21V83.83H360.47z"/>
			</g>
			<g>
				<g>
					<path class="st0" d="M265.86,83.68h20.36l-18.37,27.74h18.64v0.73h-22.18l18.24-27.7h-16.7V83.68z"/>
				</g>
				<g>
					<path class="st0" d="M285.55,83.68h21.77l-18.37,27.74h18.64v0.73h-22.18l18.24-27.7h-18.1V83.68z"/>
				</g>
			</g>
			<g>
				<g>
					<path class="st0" d="M52.16,83.83v0.77H37.68v12.73h12.04v0.77H37.68v13.46h14.48v0.73H34.95V83.83H52.16z"/>
				</g>
				<g>
					<path class="st0" d="M116.54,83.83v28.47h-2.73V83.83H116.54z"/>
				</g>
				<g>
					<path class="st0" d="M144.75,83.83v0.77h-14.48v13.95h12.04v0.77h-12.04v12.98h-2.73V83.83H144.75z"/>
				</g>
				<g>
					<path class="st0" d="M169.52,83.83v0.77h-14.48v12.73h12.04v0.77h-12.04v13.46h14.48v0.73h-17.21V83.83H169.52z"/>
				</g>
				<g>
					<g>
						<path class="st0" d="M82.07,84.72v27.97L62.1,88.53v23.76h-0.77V83.41l20.01,24.33V83.41L82.07,84.72z"/>
					</g>
					<g>
						<path class="st0" d="M81.34,83.41l20.75,24.75V84.24h0.73v28.88L82.07,88.5L81.34,83.41z"/>
					</g>
				</g>
				<g>
					<path class="st0" d="M186.24,100.15c5.54,0.57,9.1-2.86,9.1-7.74c0-4.39-2.81-7.81-7.69-7.81h-5.9v15.58v0.73v11.39h-2.73
						V83.83h8.79c7.08,0,10.33,4.19,10.33,8.54c0,4.35-3.01,7.69-8.22,8.42l9.07,11.51h-3.21L186.24,100.15"/>
				</g>
				<path class="st0" d="M23.92,83.86l0.04,20c0,1.4-0.15,2.58-0.46,3.55s-0.77,1.81-1.39,2.53c-1.99,2.37-5.6,3.04-8.52,2.58
					c-1.47-0.23-2.95-0.78-4.09-1.76c-0.96-0.82-1.66-1.99-1.75-3.25c0.86,0,1.72,0,2.58,0c0.12,0.83,0.53,1.6,1.09,2.22
					c0.56,0.62,1.24,1.16,2.01,1.48c1.54,0.63,3.84,1.05,5.75-0.42c0.15-0.11,0.1-0.08,0.23-0.21c0.61-0.61,1.06-1.21,1.35-1.82
					c0.29-0.6,0.49-1.32,0.58-2.16c0.1-0.88,0.15-2.04,0.15-3.49c0-1.11-0.01-1.84-0.02-2.19l-0.02-3.43
					c0-3.48-0.01-7.74-0.04-12.79v-0.84H23.92z"/>
			</g>
		</g>
	</g>
	<g>
		<g>
			<path class="st0" d="M178.57,19.57v0.59c0.02,3.54,0.03,6.53,0.03,8.98l0.01,2.41c0.01,0.25,0.01,0.76,0.01,1.54
				c0,1.02-0.03,1.83-0.1,2.45c-0.07,0.59-0.21,1.1-0.41,1.52c-0.21,0.42-0.52,0.85-0.95,1.28c-0.09,0.09-0.06,0.07-0.16,0.15
				c-1.34,1.03-2.96,0.74-4.04,0.29c-0.54-0.22-1.02-0.6-1.41-1.04c-0.39-0.44-0.68-0.98-0.76-1.56c-0.6,0-1.21,0-1.81,0
				c0.07,0.88,0.56,1.7,1.23,2.28c0.8,0.69,1.84,1.07,2.87,1.23c2.05,0.32,4.59-0.15,5.98-1.81c0.44-0.5,0.76-1.1,0.97-1.78
				c0.21-0.68,0.32-1.51,0.32-2.49l-0.03-14.04H178.57z"/>
			<polygon class="st0" points="183.7,31.3 183.7,31.3 190.66,38.61 193.1,38.61 183.51,28.48 191.95,19.86 191.25,19.86 
				181.91,29.42 183.53,31.13 			"/>
			<path class="st0" d="M188.17,28.03h-1.81l-0.51,0.51h2.18c3,0,6.67,2.41,6.67,8.86c0,6.08-3.29,8.89-6.64,8.89h-4.37V33.84
				l-1.79-1.92v14.86h6.27c4.66,0,8.38-3.29,8.38-9.37C196.55,30.97,192.46,28.03,188.17,28.03z"/>
		</g>
		<path class="st0" d="M184.11,4.9c-15.51,0-28.13,12.62-28.13,28.13s12.62,28.13,28.13,28.13s28.13-12.62,28.13-28.13
			S199.62,4.9,184.11,4.9z M184.11,60.44c-15.24,0-26.11-13.49-26.11-28.72s10.87-26.11,26.11-26.11s26.11,13.49,26.11,28.72
			S199.35,60.44,184.11,60.44z"/>
	</g>
</g>
</svg>
