<?xml version="1.0" encoding="utf-8"?>
<!-- Generator: Adobe Illustrator 26.2.1, SVG Export Plug-In . SVG Version: 6.00 Build 0)  -->
<svg version="1.1" id="Layer_1" xmlns="http://www.w3.org/2000/svg" xmlns:xlink="http://www.w3.org/1999/xlink" x="0px" y="0px"
	 viewBox="0 0 360 360" style="enable-background:new 0 0 360 360;" xml:space="preserve">
<style type="text/css">
	.st0{fill:#FFFFFF;}
</style>
<g>
	<path class="st0" d="M120.3,25.81v6.5c0.19,39.02,0.28,72,0.28,98.95l0.14,26.58c0.09,2.73,0.14,8.39,0.14,16.96
		c0,11.22-0.38,20.22-1.13,27c-0.76,6.5-2.26,12.09-4.52,16.75c-2.26,4.67-5.75,9.36-10.46,14.07c-1.01,1.01-0.62,0.78-1.75,1.65
		c-14.76,11.36-32.6,8.15-44.5,3.24c-5.99-2.47-11.24-6.61-15.56-11.44c-4.31-4.83-7.46-10.8-8.42-17.2
		c-6.65,0-13.29,0.01-19.94,0.01c0.73,9.74,6.14,18.77,13.54,25.13c8.8,7.57,20.27,11.82,31.63,13.61
		c22.62,3.56,50.58-1.64,65.95-19.96c4.81-5.56,8.39-12.08,10.74-19.58c2.36-7.49,3.54-16.66,3.54-27.5L139.7,25.81H120.3z"/>
	<polygon class="st0" points="176.81,155.18 176.81,155.14 253.57,235.65 280.43,235.65 174.75,124.06 267.74,29.01 260.06,29.01 
		157.04,134.4 174.97,153.21 	"/>
	<path class="st0" d="M226.11,119.06h-19.95l-5.61,5.61h24.08c33.06,0,73.51,26.57,73.51,97.72c0,67.01-36.31,98.01-73.21,98.01
		h-48.12V183.13l-19.78-21.18v163.76h69.08c51.36,0,92.4-36.31,92.4-103.32C318.52,151.53,273.35,119.06,226.11,119.06z"/>
</g>
</svg>
